<?xml version="1.0" encoding="UTF-8" standalone="no"?>
<!-- This file is based on the SVG found here: https://commons.wikimedia.org/wiki/File:SVT_2016.svg -->
<svg
   xmlns:dc="http://purl.org/dc/elements/1.1/"
   xmlns:cc="http://creativecommons.org/ns#"
   xmlns:rdf="http://www.w3.org/1999/02/22-rdf-syntax-ns#"
   xmlns:svg="http://www.w3.org/2000/svg"
   xmlns="http://www.w3.org/2000/svg"
   xmlns:sodipodi="http://sodipodi.sourceforge.net/DTD/sodipodi-0.dtd"
   xmlns:inkscape="http://www.inkscape.org/namespaces/inkscape"
   sodipodi:docname="logo.svg"
   inkscape:version="1.0 (4035a4fb49, 2020-05-01)"
   version="1.1"
   id="svg33"
   viewBox="0 0 135.46666 135.46666"
   height="512"
   width="512">
  <defs id="defs27" />
  <sodipodi:namedview
     inkscape:window-maximized="0"
     inkscape:window-y="27"
     inkscape:window-x="5760"
     inkscape:window-height="2096"
     inkscape:window-width="1920"
     inkscape:snap-object-midpoints="true"
     inkscape:snap-text-baseline="true"
     inkscape:snap-others="true"
     inkscape:snap-midpoints="true"
     units="px"
     showgrid="false"
     inkscape:document-rotation="0"
     inkscape:current-layer="layer2"
     inkscape:document-units="px"
     inkscape:cy="273.72433"
     inkscape:cx="181.65869"
     inkscape:zoom="1.4"
     inkscape:pageshadow="2"
     inkscape:pageopacity="0.0"
     borderopacity="1.0"
     bordercolor="#666666"
     pagecolor="#ffffff"
     id="base" />
  <metadata
     id="metadata30">
    <rdf:RDF>
      <cc:Work
         rdf:about="">
        <dc:format>image/svg+xml</dc:format>
        <dc:type
           rdf:resource="http://purl.org/dc/dcmitype/StillImage" />
        <dc:title></dc:title>
      </cc:Work>
    </rdf:RDF>
  </metadata>

  <rect style="fill:#E02E3D;" height="512" width="512" y="0" x="0"/>

  <g
     style="display:inline"
     id="layer1"
     inkscape:groupmode="layer"
     inkscape:label="Layer 1">
    <g
       inkscape:label="Layer 1"
       id="layer1-6"
       transform="matrix(0.11508636,0,0,0.11508636,10.997664,18.463485)">
      <path
         style="fill:#ffffff;stroke:none"
         d="m -2,624.02409 67.239342,-48.90703 c 0,0 35.691478,49.12888 85.207768,49.12888 33.08475,0 62.15356,-18.01192 62.15356,-46.9517 0,-71.59917 -191.592649,-52.95346 -191.592649,-192.24199 0,-69.01528 53.018234,-120.18629 131.869889,-120.18629 86.89444,0 126.83365,64.06504 126.83365,64.06504 l -64.17308,46.50926 c 0,0 -25.52149,-30.62805 -61.09406,-30.62805 -30.41757,0 -47.87668,17.05442 -47.87668,39.93446 0,70.7623 191.55448,56.80965 191.55448,190.98153 0,71.3677 -55.3166,129.02712 -147.09398,129.02712 C 51.81947,704.75532 -2,624.02409 -2,624.02409 Z"
         id="path3761"
         inkscape:connector-curvature="0"
         sodipodi:nodetypes="ccccccccccccc" />
      <path
         style="fill:#ffffff;stroke:none"
         d="m 306.70149,272.99861 h 92.07562 L 510.22629,571.83218 621.27751,272.99861 h 92.59333 L 555.67577,695.88757 h -91.94513 z"
         id="path3763"
         inkscape:connector-curvature="0"
         sodipodi:nodetypes="cccccccc" />
      <path
         style="fill:#ffffff;stroke:none"
         d="m 756.19429,151.38349 h 85.68338 v 121.20053 h 130.82378 l -30.86214,83.7486 h -99.96164 v 204.56443 c 0,28.80896 22.02697,62.04318 57.02559,62.04318 25.08554,0 44.44087,-17.02926 44.44087,-17.02926 L 997,666.86459 c 0,0 -33.9407,37.9758 -99.16355,37.9758 -88.68005,0 -141.81491,-75.84484 -141.81491,-139.63583 z"
         id="path3765"
         inkscape:connector-curvature="0"
         sodipodi:nodetypes="ccccccccccccc" />
    </g>
  </g>
</svg>
