<?xml version="1.0" encoding="UTF-8" standalone="no"?>
<!-- This file is based on the SVG found here: https://commons.wikimedia.org/wiki/File:SVT_2016.svg -->
<svg xmlns="http://www.w3.org/2000/svg" height="512" viewBox="0 0 1000 554" width="512" version="1.1">

  <rect transform="translate(0,-256)" style="fill:#E02E3D;" height="1033" width="1024" y="0" x="0"/>

  <g transform="translate(2.4,-150.98349)" style="fill:#ffffff;">
    <path id="s" d="m -2,624.02409 67.239342,-48.90703 c 0,0 35.691478,49.12888 85.207768,49.12888 33.08475,0 62.15356,-18.01192 62.15356,-46.9517 0,-71.59917 -191.592649,-52.95346 -191.592649,-192.24199 0,-69.01528 53.018234,-120.18629 131.869889,-120.18629 86.89444,0 126.83365,64.06504 126.83365,64.06504 l -64.17308,46.50926 c 0,0 -25.52149,-30.62805 -61.09406,-30.62805 -30.41757,0 -47.87668,17.05442 -47.87668,39.93446 0,70.7623 191.55448,56.80965 191.55448,190.98153 0,71.3677 -55.3166,129.02712 -147.09398,129.02712 C 51.81947,704.75532 -2,624.02409 -2,624.02409 z"/>
    <path id="v" d="m 306.70149,272.99861 92.07562,0 111.44918,298.83357 111.05122,-298.83357 92.59333,0 -158.19507,422.88896 -91.94513,0 z" />
    <path id="t" d="m 756.19429,151.38349 85.68338,0 0,121.20053 130.82378,0 -30.86214,83.7486 -99.96164,0 0,204.56443 c 0,28.80896 22.02697,62.04318 57.02559,62.04318 25.08554,0 44.44087,-17.02926 44.44087,-17.02926 L 997,666.86459 c 0,0 -33.9407,37.9758 -99.16355,37.9758 -88.68005,0 -141.81491,-75.84484 -141.81491,-139.63583 z"/>
  </g>
</svg>
